<svg id="Capa_1" enable-background="new 0 0 511.885 511.885" height="512" viewBox="0 0 511.885 511.885" width="512" xmlns="http://www.w3.org/2000/svg"><g><path d="m504.352 432.022c0 44.04-35.82 79.86-79.86 79.86h-33.08l-135.49-31.78-.03-.01-135.42 31.79h-33.08c-44.04 0-79.86-35.82-79.86-79.86 0-14.47 3.93-28.68 11.38-41.08l103.7-172.83h266.66l103.7 172.83c7.45 12.4 11.38 26.61 11.38 41.08z" fill="#ff448e"/><path d="m504.352 432.022c0 44.04-35.82 79.86-79.86 79.86h-33.08l-135.49-31.78v-261.99h133.35l103.7 172.83c7.45 12.4 11.38 26.61 11.38 41.08z" fill="#c43970"/><path d="m406.472 188.175c0 8.28-15 15-15 15h-271.06s-15-6.72-15-15c0-51.18 15.26-98.54 42.96-133.35 89.668-112.65 258.1-43.636 258.1 133.35z" fill="#ff448e"/><path d="m406.472 188.175c0 8.28-6.72 15-15 15s-135.55-15-135.55-15v-188.17c43.327 0 80.905 21.286 107.59 54.82 27.7 34.81 42.96 82.17 42.96 133.35z" fill="#c43970"/><path d="m406.472 188.185-150.53 97.82c-.01 0-.01 0-.02 0-36.46.19-73.57-8.08-103.64-26.46-62.37-38.12-62.78-104.36 0-142.73 8.76-5.35 18.63-9.95 28.38-13.63 0 0 49.4 33.44 75.25 33.59h.03c26.37.12 75.19-33.47 75.19-33.47 8.16 2.98 15.92 6.46 23.12 10.39.16.09.32.18.48.26 30.96 17.02 51.74 42.54 51.74 74.23z" fill="#c43970"/><path d="m406.472 188.185c.14 25.87-15.06 51.92-46.87 71.36-27.92 17.06-64.74 26.46-103.66 26.46-.01 0-.01.02-.02 0-.06-.24-.01-6.89-.01-149.23h.03c26.37.12 75.19-33.47 75.19-33.47 8.16 2.98 15.92 6.46 23.12 10.39.16.09.32.18.48.26 33.831 18.98 51.59 46.5 51.74 74.23z" fill="#912e60"/><path d="m310.73 155.838-54.825 70.556c-41.453 0-75.202-33.716-75.202-75.23l-.04-47.98c23.257-8.603 49.31-12.872 75.26-12.834z" fill="#ffe3c0"/><path d="m331.132 103.305.05 47.86c0 41.48-33.788 75.23-75.278 75.23l.018-136.044c25.129 0 51.178 4.064 75.21 12.954z" fill="#fcd0a2"/><path d="m391.412 331.235v180.65h-270.94v-180.65c0-8.284 6.716-15 15-15h240.94c8.285 0 15 6.716 15 15z" fill="#195d80"/><path d="m391.412 331.235v180.65h-135.49v-195.65h120.49c8.285 0 15 6.716 15 15z" fill="#143d66"/><path d="m316.122 414.065c0 8.28-6.72 15-15 15h-90.36c-8.28 0-15-6.72-15-15 0-8.29 6.72-15 15-15h90.36c8.28 0 15 6.71 15 15z" fill="#e6f1ff"/><path d="m316.122 414.065c0 8.28-6.72 15-15 15h-45.2v-30h45.2c8.28 0 15 6.71 15 15z" fill="#d5e8fe"/></g></svg>