<svg id="Capa_1" enable-background="new 0 0 512 512" height="512" viewBox="0 0 512 512" width="512" xmlns="http://www.w3.org/2000/svg"><g><path d="m116.119 419.605c-39.774 0-68.342-12.257-81.821-35.605-16.636-28.814-7.154-69.084 26.698-113.393 31.112-40.722 79.871-81.407 137.296-114.561s117.038-55.038 167.86-61.621c55.299-7.163 94.914 4.761 111.55 33.574 16.636 28.814 7.154 69.084-26.698 113.393-31.112 40.722-79.871 81.407-137.296 114.561s-117.038 55.038-167.86 61.621c-10.491 1.359-20.417 2.031-29.729 2.031zm279.853-297.201c-45.185 0-111.563 18.564-182.68 59.623-54.073 31.22-99.694 69.146-128.457 106.793-25.646 33.567-34.596 62.791-24.557 80.18 20.2 34.987 123.087 27.565 238.43-39.027 54.073-31.22 99.694-69.146 128.457-106.793 25.645-33.567 34.596-62.791 24.557-80.18-7.745-13.415-27.652-20.596-55.75-20.596z" fill="#6ba7ff"/><path d="m366.152 94.426c-33.893 4.39-71.697 15.593-110.152 32.398v32.903c54.556-25.533 103.987-37.322 139.972-37.322 28.099 0 48.005 7.181 55.75 20.596 10.039 17.389 1.089 46.613-24.557 80.18-28.763 37.647-74.384 75.574-128.457 106.793-14.479 8.359-28.761 15.785-42.708 22.312v32.891c19.209-8.394 38.579-18.179 57.708-29.223 57.425-33.154 106.184-73.839 137.296-114.561 33.853-44.309 43.334-84.579 26.698-113.393-16.636-28.813-56.251-40.737-111.55-33.574z" fill="#2681ff"/><path d="m395.881 419.605c-9.314 0-19.235-.671-29.729-2.031-50.822-6.582-110.436-28.466-167.86-61.621-57.425-33.153-106.184-73.839-137.296-114.56-33.852-44.309-43.334-84.58-26.698-113.393s56.255-40.739 111.55-33.574c50.822 6.582 110.436 28.466 167.86 61.621 57.425 33.154 106.184 73.839 137.296 114.561 33.853 44.309 43.334 84.58 26.698 113.393-13.478 23.345-42.052 35.604-81.821 35.604zm-279.853-297.201c-28.106 0-48.003 7.179-55.75 20.596-10.039 17.388-1.089 46.613 24.557 80.179 28.763 37.648 74.384 75.574 128.457 106.794 71.109 41.055 137.495 59.621 182.68 59.623 28.106.002 48.003-7.179 55.75-20.596 10.039-17.388 1.089-46.613-24.557-80.179-28.763-37.647-74.384-75.574-128.457-106.794-71.109-41.055-137.495-59.623-182.68-59.623z" fill="#ff69a0"/><path d="m313.708 156.046c-19.129-11.044-38.499-20.829-57.708-29.223v32.903c13.949 6.528 28.228 13.94 42.708 22.3 54.073 31.22 99.694 69.146 128.457 106.794 25.645 33.566 34.596 62.791 24.557 80.179-7.747 13.417-27.644 20.598-55.75 20.596-35.983-.002-85.419-11.792-139.972-37.323v32.903c38.456 16.805 76.259 28.008 110.152 32.398 10.493 1.359 20.414 2.031 29.729 2.031 39.77 0 68.343-12.259 81.821-35.605 16.636-28.813 7.154-69.083-26.698-113.393-31.112-40.72-79.871-81.406-137.296-114.56z" fill="#ff3983"/><circle cx="256" cy="256" fill="#ff3983" r="55"/><path d="m311 256c0-30.327-24.673-55-55-55v110c30.327 0 55-24.673 55-55z" fill="#f30050"/><path d="m461.854 180.5c-24.814 0-45-20.187-45-45s20.186-45 45-45 45 20.187 45 45-20.186 45-45 45z" fill="#6ba7ff"/><path d="m50.146 421.5c-24.813 0-45-20.187-45-45s20.187-45 45-45 45 20.187 45 45-20.187 45-45 45z" fill="#acceff"/><path d="m256 512c-33.271 0-63.405-28.347-84.852-79.818-19.71-47.305-30.565-109.874-30.565-176.182s10.856-128.877 30.565-176.182c21.447-51.471 51.582-79.818 84.852-79.818 33.272 0 63.405 28.347 84.852 79.818 19.711 47.305 30.565 109.874 30.565 176.182s-10.855 128.877-30.565 176.182c-21.447 51.471-51.581 79.818-84.852 79.818zm0-482c-40.401 0-85.417 92.815-85.417 226s45.016 226 85.417 226 85.417-92.815 85.417-226-45.016-226-85.417-226z" fill="#ffef31"/><path d="m341.417 256c0 133.185-45.016 226-85.417 226v30c33.271 0 63.405-28.347 84.852-79.818 19.71-47.305 30.565-109.874 30.565-176.182s-10.854-128.877-30.565-176.182c-21.447-51.471-51.58-79.818-84.852-79.818v30c40.401 0 85.417 92.815 85.417 226z" fill="#ff9d21"/><path d="m205.792 90.125c-24.814 0-45-20.187-45-45s20.186-45 45-45 45 20.187 45 45-20.187 45-45 45z" fill="#ff9d21"/><path d="m306.208 511.875c-24.814 0-45-20.187-45-45s20.186-45 45-45 45 20.187 45 45-20.186 45-45 45z" fill="#ff6326"/></g></svg>